<svg width="40" height="40" viewBox="0 0 40 40" fill="none" xmlns="http://www.w3.org/2000/svg">
<path d="M26.6667 13.3334C29.3189 13.3334 31.8625 14.3869 33.7378 16.2623C35.6132 18.1377 36.6667 20.6812 36.6667 23.3334V35H30.0001V23.3334C30.0001 22.4493 29.6489 21.6015 29.0238 20.9764C28.3986 20.3512 27.5508 20 26.6667 20C25.7827 20 24.9348 20.3512 24.3097 20.9764C23.6846 21.6015 23.3334 22.4493 23.3334 23.3334V35H16.6667V23.3334C16.6667 20.6812 17.7203 18.1377 19.5957 16.2623C21.471 14.3869 24.0146 13.3334 26.6667 13.3334Z" stroke="#2967B0" stroke-width="2" stroke-linecap="round" stroke-linejoin="round"/>
<path d="M9.99992 15H3.33325V35H9.99992V15Z" stroke="#2967B0" stroke-width="2" stroke-linecap="round" stroke-linejoin="round"/>
<path d="M6.66659 10C8.50753 10 9.99992 8.50766 9.99992 6.66671C9.99992 4.82576 8.50753 3.33337 6.66659 3.33337C4.82564 3.33337 3.33325 4.82576 3.33325 6.66671C3.33325 8.50766 4.82564 10 6.66659 10Z" stroke="#2967B0" stroke-width="2" stroke-linecap="round" stroke-linejoin="round"/>
</svg>
