<svg width="40" height="40" viewBox="0 0 40 40" fill="none" xmlns="http://www.w3.org/2000/svg">
<path d="M37.5667 10.7C37.3687 9.90898 36.9655 9.18425 36.3978 8.59897C35.8301 8.01369 35.118 7.5886 34.3334 7.36663C31.4667 6.66663 20.0001 6.66663 20.0001 6.66663C20.0001 6.66663 8.53339 6.66663 5.66672 7.43329C4.88214 7.65527 4.17002 8.08036 3.6023 8.66564C3.03458 9.25091 2.63137 9.97564 2.43339 10.7666C1.90875 13.6759 1.65212 16.6271 1.66672 19.5833C1.64802 22.5617 1.90467 25.5355 2.43339 28.4666C2.65166 29.233 3.0639 29.9302 3.6303 30.4908C4.19669 31.0513 4.89809 31.4563 5.66672 31.6666C8.53339 32.4333 20.0001 32.4333 20.0001 32.4333C20.0001 32.4333 31.4667 32.4333 34.3334 31.6666C35.118 31.4447 35.8301 31.0196 36.3978 30.4343C36.9655 29.849 37.3687 29.1243 37.5667 28.3333C38.0873 25.4459 38.3439 22.5172 38.3334 19.5833C38.3521 16.6049 38.0954 13.6311 37.5667 10.7Z" stroke="#D90000" stroke-width="2" stroke-linecap="round" stroke-linejoin="round"/>
<path d="M16.25 25.0333L25.8333 19.5833L16.25 14.1333V25.0333Z" stroke="#D90000" stroke-width="2" stroke-linecap="round" stroke-linejoin="round"/>
</svg>
